<svg xmlns="http://www.w3.org/2000/svg" viewBox="0 0 64 64" fill="none">
  <!-- Background circle -->
  <circle cx="32" cy="32" r="32" fill="#E8F5E9"/>
  <!-- Hair -->
  <path d="M20 28c0-8 5-14 12-14s12 6 12 14c0 2-0.5 4-1 5.5 0.5-1 1-3 1-5.5 0-9-5.4-16-12-16s-12 7-12 16c0 2.5 0.5 4.5 1 5.5-0.5-1.5-1-3.5-1-5.5z" fill="#4A2C2A"/>
  <path d="M18 30c0-9 6.3-16 14-16s14 7 14 16c0 3-1 6-2 8v-8c0-7.2-5.4-13-12-13s-12 5.8-12 13v8c-1-2-2-5-2-8z" fill="#3D2322"/>
  <!-- Face -->
  <circle cx="32" cy="34" r="11" fill="#FDDCB5"/>
  <!-- Eyes -->
  <ellipse cx="28.5" cy="33" rx="1.5" ry="1.8" fill="#2D2D2D"/>
  <ellipse cx="35.5" cy="33" rx="1.5" ry="1.8" fill="#2D2D2D"/>
  <!-- Eyebrows -->
  <path d="M26.5 30.5c0.8-0.8 2-1 3-0.5" stroke="#3D2322" stroke-width="0.8" stroke-linecap="round" fill="none"/>
  <path d="M34 30c1-0.5 2.2-0.3 3 0.5" stroke="#3D2322" stroke-width="0.8" stroke-linecap="round" fill="none"/>
  <!-- Nose -->
  <path d="M32 34.5v2.5c-0.5 0.3-1 0.3-1.5 0" stroke="#D4A574" stroke-width="0.7" stroke-linecap="round" fill="none"/>
  <!-- Smile -->
  <path d="M29 38.5c1.5 1.5 3.5 1.5 5 0" stroke="#C4785A" stroke-width="0.8" stroke-linecap="round" fill="none"/>
  <!-- Stethoscope -->
  <path d="M26 44c0 3 2.7 5 6 5s6-2 6-5" stroke="#4CAF50" stroke-width="2" stroke-linecap="round" fill="none"/>
  <circle cx="32" cy="50" r="2" fill="#4CAF50"/>
  <circle cx="32" cy="50" r="1" fill="#2E7D32"/>
  <!-- White coat collar -->
  <path d="M22 48l4-4h12l4 4" stroke="white" stroke-width="3" stroke-linecap="round" fill="none"/>
  <path d="M22 48c-1 2-2 6-2 10h24c0-4-1-8-2-10" fill="white"/>
  <!-- Hair flowing -->
  <path d="M19 30c-0.5 4 0 8 1 12" stroke="#3D2322" stroke-width="2.5" stroke-linecap="round" fill="none"/>
  <path d="M45 30c0.5 4 0 8-1 12" stroke="#3D2322" stroke-width="2.5" stroke-linecap="round" fill="none"/>
</svg>
